<?xml version="1.0" ?><!DOCTYPE svg  PUBLIC '-//W3C//DTD SVG 1.1//EN'  'http://www.w3.org/Graphics/SVG/1.1/DTD/svg11.dtd'><svg enable-background="new 0 0 128 128" id="Слой_1" version="1.1" viewBox="0 0 128 128" xml:space="preserve" xmlns="http://www.w3.org/2000/svg" xmlns:xlink="http://www.w3.org/1999/xlink"><g><g><g><g><path d="M90.6,15l-18.2,4.8c-7.2,1.9-13.3,6.5-17,13L27.8,80.1c-3.9,6.7-1.6,15.2,5,19.1L63,116.8      c6.7,3.9,15.2,1.6,19.1-5l27.6-47.4c3.7-6.4,4.8-14.1,2.8-21.2l-4.8-18.2C105.7,17.5,98.1,13,90.6,15z M97.5,34.8      c-3.3,1.9-7.6,0.8-9.5-2.6c-1.9-3.3-0.8-7.6,2.6-9.5c3.3-1.9,7.6-0.8,9.5,2.6C102,28.6,100.8,32.9,97.5,34.8z" fill="#EC7BB0"/></g><g><path d="M70,119.9L70,119.9c-2.7,0-5.3-0.7-7.6-2.1l-30.2-17.5c-7.2-4.2-9.7-13.5-5.5-20.8l27.6-47.4      c3.9-6.7,10.4-11.6,17.8-13.5c0.1,0,0.2,0,0.2,0c0,0,5-0.3,11.1-0.3c23.7,0,25,4.8,25.4,6.4l4.8,18.2c2,7.4,0.9,15.5-3,22.2      l-27.6,47.4C80.5,117,75.4,119.9,70,119.9z M72.6,21c-6.8,1.8-12.6,6.3-16.2,12.4L28.9,80.8c-3.5,6.1-1.5,13.9,4.6,17.4      l30.2,17.5c1.9,1.1,4.1,1.7,6.4,1.7c4.5,0,8.7-2.4,11-6.3l27.6-47.4c3.5-6.1,4.5-13.5,2.7-20.3l-4.8-18.2      c-0.2-0.7-1.4-2.5-8.4-3.6c1.3,0.7,2.4,1.8,3.1,3.1c1.1,1.9,1.4,4.1,0.8,6.2c-0.6,2.1-1.9,3.9-3.9,5C96.9,36.6,95.5,37,94,37      c-2.9,0-5.7-1.6-7.1-4.1c-2.3-3.9-0.9-9,3-11.2c0.5-0.3,1.1-0.5,1.6-0.7c-2.3-0.1-5-0.2-8.1-0.2C77.9,20.7,73.4,21,72.6,21z       M94,23c-1,0-2,0.3-2.8,0.8c-2.7,1.6-3.7,5.1-2.1,7.8c1,1.8,2.9,2.9,5,2.9c1,0,2-0.3,2.8-0.8c1.3-0.8,2.3-2,2.7-3.5      s0.2-3-0.6-4.3C98,24.1,96.1,23,94,23z" fill="#62355C"/></g></g><g><g><g><g opacity="0.2"><path d="M68,112.4L101.1,79l8.6-14.7c3.7-6.4,4.8-14.1,2.8-21.2l-4.8-18.2c-2-7.4-9.6-11.9-17-9.9l-18.2,4.8        c-7.2,1.9-13.3,6.5-17,13L27.8,80.1c-3.9,6.7-1.6,15.2,5,19.1l29.7,17.3C64.6,115.4,66.4,114.1,68,112.4z M90.6,22.7        c3.3-1.9,7.6-0.8,9.5,2.6c1.9,3.3,0.8,7.6-2.6,9.5c-3.3,1.9-7.6,0.8-9.5-2.6C86.1,28.9,87.2,24.6,90.6,22.7z" fill="#593055"/></g><g><path d="M94.2,14.6l-18.8,0c-7.4,0-14.5,3-19.8,8.3L17,61.9c-5.4,5.5-5.4,14.3,0.1,19.7l24.8,24.6        c5.5,5.4,14.3,5.4,19.7-0.1l38.6-38.9c5.2-5.3,8.1-12.4,8.1-19.8l-0.1-18.8C108.1,20.8,101.9,14.6,94.2,14.6z M95.8,35.5        c-3.7,1-7.6-1.2-8.6-4.9c-1-3.7,1.2-7.6,4.9-8.6c3.7-1,7.6,1.2,8.6,4.9C101.7,30.7,99.6,34.5,95.8,35.5z" fill="#FEE444"/></g><g><path d="M51.7,111.5C51.7,111.5,51.7,111.5,51.7,111.5c-4,0-7.8-1.6-10.7-4.4L16.2,82.5        c-2.9-2.9-4.5-6.7-4.5-10.7s1.5-7.9,4.4-10.8l38.6-38.9c5.4-5.5,12.9-8.6,20.6-8.6c0,0,0.2,0,0.2,0c0.1,0,8.4,1.6,16.5,4.1        c11.6,3.5,17.3,7.1,17.3,11l0.1,18.8c0,7.7-3,15.2-8.4,20.7L62.5,107C59.6,109.9,55.8,111.5,51.7,111.5z M75.2,15.9        c-7,0-13.8,2.9-18.8,7.9L17.9,62.8c-2.4,2.4-3.7,5.6-3.7,9s1.4,6.6,3.8,9l24.8,24.6c2.4,2.4,5.6,3.7,8.9,3.7h0        c3.4,0,6.6-1.3,9-3.8l38.6-38.9c5-5,7.8-11.9,7.7-18.9l-0.1-18.8c0-1.8-2.9-3.8-7.2-5.6c1.1,1,1.8,2.3,2.2,3.8        c1.2,4.4-1.4,8.9-5.8,10.1C95.5,36.9,94.7,37,94,37c-3.7,0-7-2.5-7.9-6.1c-0.6-2.1-0.3-4.3,0.8-6.2c1.1-1.9,2.9-3.3,5-3.9        c0.6-0.2,1.2-0.2,1.7-0.3C87.8,18.7,81,17,75.2,15.9z M94,23.1c-0.5,0-1,0.1-1.5,0.2C91,23.7,89.8,24.6,89,26        c-0.8,1.3-1,2.9-0.6,4.3c0.7,2.5,2.9,4.2,5.5,4.2c0.5,0,1-0.1,1.5-0.2c3-0.8,4.8-4,4-7C98.8,24.8,96.6,23.1,94,23.1z" fill="#62355C"/></g></g><g><g opacity="0.2"><path d="M40.8,105.1c2.1-0.5,4.2-1.3,6.1-2.4l42.3-24.4l11-11.1c5.2-5.3,8.1-12.4,8.1-19.8l-0.1-18.8        c0-7.7-6.3-13.9-14-13.9l-18.8,0c-7.4,0-14.5,3-19.8,8.3L17,61.9c-5.4,5.5-5.4,14.3,0.1,19.7L40.8,105.1z M92.2,22.1        c3.7-1,7.6,1.2,8.6,4.9c1,3.7-1.2,7.6-4.9,8.6c-3.7,1-7.6-1.2-8.6-4.9C86.3,26.9,88.4,23.1,92.2,22.1z" fill="#593055"/></g><g><path d="M97.9,15.2l-18.2-4.9c-7.2-1.9-14.8-0.9-21.2,2.8L11,40.5c-6.7,3.9-9,12.4-5.1,19.1l17.4,30.2        c3.9,6.7,12.4,9,19.1,5.1l47.5-27.4c6.4-3.7,11.1-9.8,13-17l4.8-18.2C109.7,24.9,105.3,17.2,97.9,15.2z M94,35.8        c-3.9,0-7-3.1-7-7c0-3.9,3.1-7,7-7c3.9,0,7,3.1,7,7C100.9,32.7,97.8,35.8,94,35.8z" fill="#65C5B4"/></g><g><path d="M33.1,62.6c-1,0-2.2,0.2-3.7,0.7l-1.6,0.5c-0.8,0.3-1.4,0.4-1.8,0.4c-0.5,0-0.9-0.1-1.3-0.8        c-0.2-0.4-0.3-0.8-0.1-1.3c0.2-0.6,0.8-1.2,1.6-1.6c1.4-0.8,2.3-0.8,3.4,0.2c0.7,0.5,1.6,0.6,2.3,0.2c0.2-0.1,0.3-0.2,0.5-0.3        c0.7-0.6,0.9-1.6,0.5-2.4c-0.1-0.2-0.3-0.4-0.4-0.5c-2.2-2-5.1-2.2-8.2-0.4c-1.9,1.1-3.2,2.5-3.7,4.1        c-0.5,1.4-0.3,2.9,0.5,4.3c1.1,1.9,2.6,2.9,4.6,2.9c0.9,0,2-0.2,3.3-0.6l1.7-0.6c0.9-0.3,1.6-0.4,2.1-0.4c0.6,0,1,0.2,1.5,0.9        c1,1.7-1,3.1-1.6,3.4c-0.8,0.5-1.5,0.7-2.1,0.7c-0.8,0-1.4-0.4-2.1-1.1c-0.6-0.6-1.6-0.7-2.4-0.2c-0.2,0.1-0.3,0.2-0.4,0.3        l-0.1,0.1c-0.7,0.7-0.9,1.7-0.4,2.5c0.1,0.2,0.2,0.3,0.3,0.4l0.1,0.1c1.1,1,2.5,2.1,4.6,2.1c1.4,0,2.9-0.5,4.6-1.4        c3.7-2.2,5-5.7,3.2-8.8C36.7,63.6,35.2,62.6,33.1,62.6z" fill="#FFFFFF"/><path d="M55.7,58.9L42.8,48.7C42,48,41,47.9,40,48.3l-0.7-0.7l0.3,1c-0.9,0.6-1.3,1.5-1.1,2.6l2.4,16.3        c0.1,0.3,0.1,0.5,0.2,0.7c0.3,0.6,1,0.9,1.7,0.9c0.2,0,0.4,0,0.5-0.1c0.3-0.1,0.5-0.1,0.7-0.3c0.7-0.4,1.1-1.2,0.9-2l-0.7-4.2        l5.5-3.2l3.3,2.7c0.6,0.5,1.5,0.6,2.2,0.2c0.2-0.1,0.4-0.3,0.5-0.4c0.7-0.7,0.9-1.6,0.4-2.4C56.1,59.2,55.9,59,55.7,58.9z         M46.6,56.7l-3,1.7l-0.7-4.8L46.6,56.7z" fill="#FFFFFF"/><path d="M67.5,50.4l-6.7,3.9L54,42.5c-0.6-1-1.7-1.3-2.8-0.6c-1.1,0.6-1.4,1.7-0.8,2.7l7.1,12.3        c0.3,0.5,1.1,1.9,2.7,1.9c0.6,0,1.2-0.2,1.9-0.6l7.4-4.3c0.9-0.5,1.2-1.7,0.6-2.7C69.6,50.2,68.4,49.8,67.5,50.4z" fill="#FFFFFF"/><path d="M83.8,43.3c-0.6-1-1.7-1.3-2.6-0.8l-6.8,3.9l-2.1-3.7l5.7-3.3c0.9-0.5,1.2-1.7,0.7-2.6        c-0.6-1-1.7-1.3-2.6-0.8l-5.7,3.3l-1.7-3l6.6-3.8c0.5-0.3,0.8-0.7,0.9-1.3c0.1-0.5,0-0.9-0.3-1.4c-0.6-1-1.7-1.3-2.6-0.8        l-7.3,4.2c-0.9,0.5-1.5,1.2-1.7,2c-0.2,0.8,0,1.6,0.6,2.6L71.1,49c0.3,0.5,1.1,1.9,2.7,1.9c0.6,0,1.2-0.2,1.9-0.6l7.5-4.3        C84.1,45.4,84.3,44.3,83.8,43.3z" fill="#FFFFFF"/></g><g><path d="M35.4,98L35.4,98c-5.4,0-10.5-2.9-13.2-7.6L4.8,60.2c-4.2-7.3-1.7-16.6,5.6-20.8L57.8,12        C64.5,8.2,72.6,7.1,80,9.1L98.2,14c8.1,2.2,12.9,10.5,10.7,18.6l-4.8,18.2c-2,7.4-6.9,13.9-13.6,17.8L43,96        C40.7,97.3,38.1,98,35.4,98z M72.4,10.6c-4.7,0-9.3,1.2-13.3,3.6L11.6,41.6C5.5,45.1,3.4,52.9,7,58.9l17.4,30.2        c2.3,3.9,6.5,6.4,11,6.4l0,0c2.2,0,4.4-0.6,6.3-1.7l47.5-27.4c6.1-3.5,10.6-9.4,12.4-16.2l4.8-18.2c1.8-6.7-2.2-13.7-9-15.5        l-18.2-4.9C77.1,10.9,74.8,10.6,72.4,10.6z M94,37.1c-4.5,0-8.2-3.7-8.2-8.2s3.7-8.2,8.2-8.2s8.2,3.7,8.2,8.2        S98.5,37.1,94,37.1z M94,23.1c-3.2,0-5.7,2.6-5.7,5.7s2.6,5.7,5.7,5.7s5.7-2.6,5.7-5.7S97.1,23.1,94,23.1z" fill="#62355C"/></g></g></g></g></g><g><g><path d="M118.9,38.9l-25-5.7c-2.3-0.5-3.7-2.7-3.2-5v0c0.5-2.3,2.7-3.7,5-3.2l25,5.7c2.3,0.5,3.7,2.7,3.2,5l0,0     C123.4,37.9,121.2,39.4,118.9,38.9z" fill="#FFFFFF"/></g><g><path d="M119.8,40.2c-0.4,0-0.8,0-1.1-0.1l-25-5.7c-1.4-0.3-2.6-1.1-3.4-2.4c-0.8-1.2-1.1-2.7-0.8-4.1     c0.5-2.5,2.8-4.3,5.3-4.3c0.4,0,0.8,0,1.1,0.1l25,5.7c1.4,0.3,2.6,1.1,3.4,2.4c0.8,1.2,1.1,2.7,0.8,4.1     C124.6,38.4,122.4,40.2,119.8,40.2z M94.8,26.2c-1.4,0-2.6,1-2.9,2.3c-0.2,0.8,0,1.6,0.4,2.2s1.1,1.1,1.9,1.3l25,5.7     c0.2,0,0.4,0.1,0.6,0.1c1.4,0,2.6-1,2.9-2.3c0.2-0.8,0-1.6-0.4-2.2s-1.1-1.1-1.9-1.3l-25-5.7C95.2,26.2,95,26.2,94.8,26.2z" fill="#62355C"/></g></g></g></svg>